<?xml version="1.0" encoding="UTF-8"?>
<!DOCTYPE svg PUBLIC "-//W3C//DTD SVG 1.1//EN" "http://www.w3.org/Graphics/SVG/1.1/DTD/svg11.dtd">
<!-- Creator: CorelDRAW 2020 (64 Bit) -->
<svg xmlns="http://www.w3.org/2000/svg" xml:space="preserve" width="100mm" height="40mm" version="1.1" style="shape-rendering:geometricPrecision; text-rendering:geometricPrecision; image-rendering:optimizeQuality; fill-rule:evenodd; clip-rule:evenodd"
viewBox="0 0 10000 4000"
 xmlns:xlink="http://www.w3.org/1999/xlink"
 xmlns:xodm="http://www.corel.com/coreldraw/odm/2003">
 <defs>
  <style type="text/css">
   <![CDATA[
    .str0 {stroke:#373435;stroke-width:20;stroke-miterlimit:22.9256}
    .fil0 {fill:none}
    .fil5 {fill:#96989A}
    .fil6 {fill:#606062}
    .fil3 {fill:#373435}
    .fil1 {fill:#FFF212}
    .fil4 {fill:#EC268F}
    .fil2 {fill:#00AFEF}
    .fil7 {fill:#FEFEFE;fill-rule:nonzero}
   ]]>
  </style>
 </defs>
 <g id="Camada_x0020_1">
  <metadata id="CorelCorpID_0Corel-Layer"/>
  <rect class="fil0 str0" x="-3.8" y="6.6" width="10000" height="4000"/>
  <path class="fil1" d="M1732.81 2001.2l-13.27 8.16c-85.24,115.33 -155.61,195.1 -209.28,337.76 -41.23,109.55 -59.67,246.2 37.07,298.57 86.41,46.79 202.36,-13.13 318.66,76.69 182,140.57 -9.38,508.24 -248.65,396.9 -129.85,-60.39 -123.02,-176.09 -218.22,-231.66 -97.92,-57.17 -203.87,5.48 -277.1,98.01 -41,51.82 -70.42,108.19 -93.31,165.64l1081.05 624.12 657.39 -1138.67c-56.04,-18.66 -109.77,-45.22 -164.13,-95.77 -76.8,-71.36 -119.48,-185.06 -38.88,-293.25 35.13,-47.11 84.28,-69.67 126.75,-105.47 44.46,-37.47 89.93,-93.3 112.63,-157.78 87.89,-249.71 -249.79,-405.51 -387.87,-170.73 -76.11,129.4 -38.94,253.52 -96.43,336.6 -63.58,91.89 -188.72,80.35 -286.97,45.93 -118.68,-41.56 -208.51,-113.54 -299.44,-195.05z"/>
  <path class="fil2" d="M1719.54 2009.36c6.55,-24.19 13.17,-8.89 -12.26,-34.29 -60.8,-60.58 -191.92,-142.24 -270.08,-170.98 -101.7,-37.42 -227.25,-47.52 -290.99,37.77 -60.73,81.29 -26.86,210.82 -96.83,335.19 -139.66,248.27 -482.01,83.96 -386.5,-170.59 59.82,-159.39 175.3,-164.03 240.74,-260.11 75,-110.16 31.57,-221.1 -47.81,-292.78 -52.14,-47.11 -104.71,-73.34 -158.88,-91.73l-333.57 577.8c-197.06,341.32 -106.69,765.88 200.82,943.42l464.53 268.21c22.89,-57.45 52.31,-113.82 93.31,-165.64 73.23,-92.53 179.18,-155.18 277.1,-98.01 95.2,55.57 88.37,171.27 218.22,231.66 239.27,111.34 430.65,-256.33 248.65,-396.9 -116.3,-89.82 -232.25,-29.9 -318.66,-76.69 -96.74,-52.37 -78.3,-189.02 -37.07,-298.57 53.67,-142.66 124.04,-222.43 209.28,-337.76z"/>
  <path class="fil3" d="M696.93 1361.84c54.17,18.39 106.74,44.62 158.88,91.73 79.38,71.68 122.81,182.62 47.81,292.78 -65.44,96.08 -180.92,100.72 -240.74,260.11 -95.51,254.55 246.84,418.86 386.5,170.59 69.97,-124.37 36.1,-253.9 96.83,-335.19 63.74,-85.29 189.29,-75.19 290.99,-37.77 78.16,28.74 209.28,110.4 270.08,170.98 25.43,25.4 18.81,10.1 12.26,34.29l13.27 -8.16c88.3,-125.1 160.35,-192.5 219.26,-350.8 40.43,-108.59 59.48,-244.84 -38.19,-297.06 -85.73,-45.84 -202.4,13.77 -318.94,-76.59 -84.14,-65.21 -93.68,-187.87 -28.59,-299.67 63.28,-108.67 182.08,-141.56 276.99,-97.65 131.51,60.79 126.39,177.57 218.48,232.27 97.49,57.89 205.62,-6.07 278.44,-98.72 43.25,-55.01 71.3,-109.91 92.93,-165.62l-1079.42 -623.18 -656.84 1137.66z"/>
  <path class="fil4" d="M2433.19 847.36c-21.63,55.71 -49.68,110.61 -92.93,165.62 -72.82,92.65 -180.95,156.61 -278.44,98.72 -92.09,-54.7 -86.97,-171.48 -218.48,-232.27 -94.91,-43.91 -213.71,-11.02 -276.99,97.65 -65.09,111.8 -55.55,234.46 28.59,299.67 116.54,90.36 233.21,30.75 318.94,76.59 97.67,52.22 78.62,188.47 38.19,297.06 -58.91,158.3 -130.96,225.7 -219.26,350.8 90.93,81.51 180.76,153.49 299.44,195.05 98.25,34.42 223.39,45.96 286.97,-45.93 57.49,-83.08 20.32,-207.2 96.43,-336.6 138.08,-234.78 475.76,-78.98 387.87,170.73 -22.7,64.48 -68.17,120.31 -112.63,157.78 -42.47,35.8 -91.62,58.36 -126.75,105.47 -80.6,108.19 -37.92,221.89 38.88,293.25 54.36,50.55 108.09,77.11 164.13,95.77l402.24 -696.7c158.98,-275.38 86.08,-617.91 -162.03,-761.16l-574.17 -331.5z"/>
  <path class="fil5" d="M2413.02 3353.38c357.59,-509.75 800.2,-1051.53 1190.01,-1477.87 106.51,-116.48 179.83,-125.3 39.57,-187.88 -27.27,-12.14 -56.29,-24.62 -86.06,-38.04 -156.69,-70.7 -121.72,-95.9 -201.81,40.21 -267.38,454.26 -755.1,1274.3 -941.71,1663.58z"/>
  <path class="fil6" d="M2246.61 3684.74c442.18,-473.47 1058.28,-1112.64 1562.81,-1432.87 91.85,-58.25 126.03,-45.9 23.01,-106.8 -54.91,-32.4 -119.5,-64.84 -175.94,-97.28 -117.54,-67.55 -70.72,-71.69 -166.23,38.67 -445.47,514.54 -847.25,999.2 -1243.65,1598.28z"/>
  <path class="fil7" d="M5401.56 974.55c57.08,53.61 107.53,114.2 151.29,181.73 43.78,67.52 80.43,138.54 109.91,213 29.5,74.5 51.89,151.96 67.11,232.4 15.25,80.44 22.83,160.38 22.83,239.84 0,95.33 -11.43,190.16 -34.25,284.5 -22.84,94.36 -55.69,183.73 -98.51,268.15 -42.79,84.41 -96.11,161.88 -159.85,232.35 -63.75,70.54 -136.55,129.6 -218.43,177.3 -102.77,59.59 -217.44,98.8 -344,117.69 -126.58,18.86 -248.85,28.28 -366.88,28.28l-493.92 0 0 -387.29 396.84 0 85.65 0c95.17,0 183.7,-5.46 265.52,-16.41 81.83,-10.9 166.54,-41.19 254.09,-90.84 51.39,-29.81 97.57,-67.04 138.47,-111.74 40.93,-44.71 74.71,-93.83 101.36,-147.46 26.66,-53.64 47.1,-110.73 61.38,-171.32 14.27,-60.58 21.41,-121.66 21.41,-183.21 0,-103.29 -19.98,-203.6 -59.97,-300.92 -39.95,-97.33 -97.07,-180.75 -171.27,-250.25 -49.49,-45.71 -101.82,-80.95 -157.02,-105.77 -55.21,-24.85 -112.32,-43.21 -171.32,-55.13 -58.99,-11.93 -119.44,-19.37 -181.28,-22.33 -61.84,-2.98 -124.19,-4.48 -187.02,-4.48l-396.84 0 0 -387.29 485.37 0c74.21,0 150.84,3.45 229.83,10.42 78.96,6.94 157.02,20.36 234.12,40.2 77.07,19.89 150.8,46.2 221.24,78.98 70.4,32.77 135.11,75.96 194.14,129.6zm1437.89 1975.24c-91.34,0 -176.98,-16.37 -256.93,-49.14 -79.94,-32.77 -149.89,-78.97 -209.84,-138.54 -59.94,-59.59 -108.01,-129.6 -144.18,-210.04 -36.15,-80.44 -56.16,-168.32 -59.93,-263.67l399.65 0c9.54,83.42 37.12,152.44 82.83,207.06 45.66,54.62 108.48,81.92 188.4,81.92 38.08,0 74.25,-6.44 108.49,-19.38 34.28,-12.88 64.74,-31.26 91.37,-55.09 26.66,-23.84 48.06,-52.13 64.22,-84.91 16.21,-32.78 24.3,-69.02 24.3,-108.74 0,-61.57 -11.91,-111.73 -35.72,-150.46 -23.77,-38.74 -54.7,-70.5 -92.77,-95.33 -38.06,-24.84 -80.43,-46.18 -127.03,-64.07 -46.64,-17.86 -92.81,-35.76 -138.47,-53.61 -32.37,-11.91 -63.76,-24.84 -94.22,-38.73 -30.46,-13.91 -61.86,-28.81 -94.22,-44.69 -104.69,-55.62 -181.3,-127.13 -229.82,-214.51 -48.55,-87.39 -72.8,-193.67 -72.8,-318.78 0,-89.4 15.71,-171.32 47.11,-245.8 31.39,-74.48 74.21,-139.03 128.45,-193.64 54.25,-54.62 118.52,-97.36 192.72,-128.12 74.24,-30.79 153.22,-46.17 236.96,-46.17 83.76,0 161.78,15.38 234.11,46.17 72.33,30.76 135.6,73.99 189.85,129.6 54.24,55.61 97.54,120.67 129.92,195.14 32.34,74.49 50.42,155.42 54.25,242.82l-388.3 0c-5.7,-73.49 -27.58,-132.08 -65.67,-175.78 -38.04,-43.7 -93.24,-65.55 -165.57,-65.55 -58.99,0 -108.96,20.36 -149.87,61.08 -40.94,40.72 -61.39,92.85 -61.39,156.41 0,51.64 10.46,93.85 31.4,126.63 20.92,32.77 48.06,59.58 81.35,80.43 33.34,20.85 69.97,38.23 109.92,52.14 39.97,13.9 79,27.81 117.04,41.71 78.05,25.82 149.91,57.11 215.57,93.84 65.68,36.75 122.74,80.95 171.29,132.59 48.54,51.64 86.13,112.7 112.78,183.21 26.65,70.5 39.97,153.41 39.97,248.78 0,101.3 -16.64,194.13 -49.96,278.56 -33.3,84.41 -79.47,156.41 -138.48,216 -58.99,59.59 -129.41,106.26 -211.26,140.02 -81.83,33.76 -170.34,50.64 -265.52,50.64zm2505.69 0l-479.65 0 -770.83 -1164.89 199.84 0 254.11 0c51.36,0 100.38,-6.94 147.03,-20.85 46.62,-13.9 87.07,-34.76 121.31,-62.57 34.29,-27.82 61.39,-63.08 81.39,-105.76 20,-42.71 29.98,-93.85 29.98,-153.44 0,-57.59 -10.46,-107.77 -31.43,-150.47 -20.92,-42.67 -49,-77.95 -84.22,-105.77 -35.2,-27.77 -75.63,-48.63 -121.33,-62.54 -45.67,-13.9 -93.24,-20.86 -142.73,-20.86l-254.11 0 -396.84 0 0 -384.32 653.79 0c95.19,0 187,9.43 275.52,28.3 88.49,18.87 170.8,59.09 246.95,120.65 79.92,65.57 141.79,145.51 185.57,239.85 43.79,94.34 65.65,195.14 65.65,302.38 0,95.35 -17.6,191.69 -52.81,289.01 -35.2,97.31 -86.13,178.76 -152.75,244.27 -55.18,55.64 -109.91,95.85 -164.15,120.69 -54.25,24.83 -117.52,46.16 -189.84,64.05l579.55 822.27zm-3560.31 0l0 -366.28 351 0 0 366.28 -351 0zm1720.56 0l0 -366.28 351.01 0 0 366.28 -351.01 0zm1888.98 0l0 -366.28 351.01 0 0 366.28 -351.01 0z"/>
  <path class="fil7" d="M7712.72 3273.5l-26.34 52.41c-32.01,-23.65 -63.36,-35.48 -94.06,-35.48 -48.7,0 -87.1,17.14 -115.29,51.53 -28.11,34.28 -42.21,79.74 -42.21,136.36 0,53.77 13.77,97.08 41.43,129.95 27.56,32.86 65.08,49.25 112.71,49.25 33.83,0 61.18,-10.22 82.12,-30.49l0 -108.79 -64.44 0 0 -54.02 128.22 0 0 202.63c-16.94,14.43 -40.57,25.92 -70.82,34.7 -30.38,8.79 -59.77,13.24 -88.43,13.24 -64.22,0 -114.88,-21.83 -152.08,-65.31 -37.2,-43.59 -55.76,-101.52 -55.76,-173.77 0,-72.02 20.42,-130.49 61.2,-175.3 40.77,-44.79 95.89,-67.25 165.21,-67.25 48.48,0 88.06,13.45 118.54,40.34zm369.19 151.02c-13.14,-9.13 -26.37,-13.68 -39.84,-13.68 -21.36,0 -40.11,9.87 -56.07,29.51 -16.06,19.74 -24.07,43.36 -24.07,71.16l0 195.48 -60.53 0 0 -340.42 60.53 0 0 54.02c22.01,-40.33 54.87,-60.51 98.39,-60.51 10.71,0 26.35,1.95 46.76,5.75l-25.17 58.69zm331.06 243.4c-24.06,30.36 -61.04,45.54 -110.73,45.54 -26.68,0 -49.79,-9.73 -69.32,-29.15 -19.64,-19.41 -29.41,-43.5 -29.41,-72.45 0,-34.61 15.08,-63.8 45.24,-87.76 30.14,-23.88 68.58,-35.8 115.31,-35.8 12.69,0 27.12,2.79 43.18,8.46 0,-55.14 -24.51,-82.66 -73.64,-82.66 -37.78,0 -66.73,10.19 -87.12,30.59l-25.4 -50.77c11.5,-9.33 27.34,-17.25 47.53,-23.88 20.3,-6.6 39.59,-9.96 58.03,-9.96 49.37,0 85.25,11.27 107.61,33.72 22.33,22.47 33.51,58.16 33.51,107.19l0 122.12c0,29.86 8.9,49.82 26.71,59.8l0 29.94c-24.62,0 -43.08,-3.5 -55.24,-10.43 -12.25,-6.94 -20.93,-18.43 -26.26,-34.5zm-5.73 -128.21c-18.97,-4.35 -32.32,-6.53 -39.93,-6.53 -30.36,0 -55.22,7.94 -74.41,23.67 -19.19,15.7 -28.87,34.39 -28.87,55.86 0,35.48 20.85,53.27 62.39,53.27 30.49,0 57.4,-14.53 80.82,-43.6l0 -82.67zm13.65 -346.9l-72.22 106.08 -44.26 0 54 -106.08 62.48 0zm438.61 514.18l0 -289.63 -141.25 0 0 289.63 -60.52 0 0 -289.63 -49.47 0 0 -50.79 49.47 0c0,-43.37 10.74,-77.43 32.1,-102.16 21.5,-24.74 49.79,-37.12 85.06,-37.12 17.56,0 36.45,3.15 56.61,9.56l-16.91 44.35c-12.36,-4.23 -23.87,-6.38 -34.48,-6.38 -18.46,0 -33.74,6.94 -45.8,20.93 -12.03,13.97 -18,31.68 -18,53.04 0,5.76 0.66,11.61 1.94,17.78l202.42 0 0 340.42 -61.17 0zm23.65 -469.28c10.31,0 19.21,3.69 26.57,10.93 7.26,7.38 10.95,16.19 10.95,26.29 0,10.41 -3.69,19.31 -10.95,26.68 -7.36,7.27 -16.26,10.95 -26.57,10.95 -10.21,0 -18.99,-3.68 -26.37,-10.95 -7.28,-7.37 -10.94,-16.27 -10.94,-26.68 0,-10.32 3.56,-19.21 10.83,-26.37 7.19,-7.26 16.08,-10.85 26.48,-10.85zm458.77 156.21l-30.16 42.31c-6.19,-6.1 -17.13,-11.83 -32.88,-17.24 -15.73,-5.43 -31.11,-8.15 -46.3,-8.15 -33.1,0 -59.47,11.49 -78.88,34.59 -19.4,22.98 -29.18,54.55 -29.18,94.72 0,39.9 9.88,70.3 29.52,91.23 19.73,20.93 47.05,31.34 82.01,31.34 27.1,0 54.43,-10.41 82,-31.24l23.87 50.77c-32.46,20.81 -72.57,31.21 -120.51,31.21 -46.45,0 -84.84,-15.58 -115.22,-46.75 -30.27,-31.1 -45.45,-73.41 -45.45,-126.56 0,-54.34 15.83,-97.84 47.51,-130.71 31.8,-32.87 75.18,-49.36 130.16,-49.36 17.81,0 37,3.69 57.73,11.07 20.72,7.37 35.9,14.97 45.78,22.77zm326.41 274c-24.08,30.36 -61.08,45.54 -110.77,45.54 -26.67,0 -49.78,-9.73 -69.31,-29.15 -19.63,-19.41 -29.39,-43.5 -29.39,-72.45 0,-34.61 15.09,-63.8 45.23,-87.76 30.16,-23.88 68.56,-35.8 115.32,-35.8 12.69,0 27.11,2.79 43.17,8.46 0,-55.14 -24.51,-82.66 -73.66,-82.66 -37.73,0 -66.7,10.19 -87.09,30.59l-25.38 -50.77c11.48,-9.33 27.34,-17.25 47.5,-23.88 20.28,-6.6 39.59,-9.96 58.02,-9.96 49.36,0 85.28,11.27 107.63,33.72 22.34,22.47 33.52,58.16 33.52,107.19l0 122.12c0,29.86 8.89,49.82 26.67,59.8l0 29.94c-24.61,0 -43.06,-3.5 -55.21,-10.43 -12.26,-6.94 -20.94,-18.43 -26.25,-34.5zm-5.75 -128.21c-18.99,-4.35 -32.34,-6.53 -39.9,-6.53 -30.39,0 -55.23,7.94 -74.42,23.67 -19.21,15.7 -28.87,34.39 -28.87,55.86 0,35.48 20.83,53.27 62.39,53.27 30.47,0 57.36,-14.53 80.8,-43.6l0 -82.67z"/>
 </g>
</svg>
