<?xml version="1.0" encoding="UTF-8"?>
<!DOCTYPE svg PUBLIC "-//W3C//DTD SVG 1.1//EN" "http://www.w3.org/Graphics/SVG/1.1/DTD/svg11.dtd">
<!-- Creator: CorelDRAW 2020 (64 Bit) -->
<svg xmlns="http://www.w3.org/2000/svg" xml:space="preserve" width="296.686mm" height="209.903mm" version="1.1" style="shape-rendering:geometricPrecision; text-rendering:geometricPrecision; image-rendering:optimizeQuality; fill-rule:evenodd; clip-rule:evenodd"
viewBox="0 0 29668.6 20990.28"
 xmlns:xlink="http://www.w3.org/1999/xlink"
 xmlns:xodm="http://www.corel.com/coreldraw/odm/2003">
 <defs>
  <style type="text/css">
   <![CDATA[
    .fil4 {fill:#96989A}
    .fil5 {fill:#606062}
    .fil2 {fill:#373435}
    .fil0 {fill:#FFF212}
    .fil3 {fill:#EC268F}
    .fil1 {fill:#00AFEF}
    .fil7 {fill:#606062;fill-rule:nonzero}
    .fil6 {fill:#263B6E;fill-rule:nonzero}
   ]]>
  </style>
 </defs>
 <g id="Camada_x0020_1">
  <metadata id="CorelCorpID_0Corel-Layer"/>
  <path class="fil0" d="M6793.93 9043.2l-32.18 19.81c-207.32,280.41 -378.38,474.41 -508.87,821.24 -100.2,266.32 -145.06,598.58 90.13,725.9 210.05,113.72 492.01,-31.95 774.78,186.45 442.5,341.76 -22.83,1235.7 -604.56,965.02 -315.67,-146.89 -299.09,-428.19 -530.5,-563.28 -238.13,-139 -495.72,13.37 -673.78,238.3 -99.71,125.98 -171.23,263.04 -226.83,402.71l2628.31 1517.45 1598.39 -2768.49c-136.25,-45.38 -266.92,-109.96 -399.08,-232.79 -186.74,-173.53 -290.46,-449.91 -94.5,-712.96 85.38,-114.61 204.88,-169.39 308.11,-256.44 108.12,-91.16 218.68,-226.91 273.85,-383.69 213.66,-607.14 -607.32,-985.94 -943.01,-415.09 -185.01,314.6 -94.72,616.37 -234.47,818.36 -154.59,223.43 -458.81,195.35 -697.73,111.7 -288.52,-101.03 -506.93,-276.07 -728.06,-474.2z"/>
  <path class="fil1" d="M6761.75 9063.01c15.9,-58.79 32.01,-21.62 -29.89,-83.35 -147.77,-147.34 -466.55,-345.81 -656.64,-415.74 -247.22,-90.95 -552.46,-115.52 -707.43,91.84 -147.7,197.65 -65.33,512.57 -235.43,814.94 -339.58,603.61 -1171.99,204.14 -939.72,-414.71 145.45,-387.55 426.21,-398.85 585.29,-632.44 182.36,-267.83 76.78,-537.52 -116.22,-711.87 -126.76,-114.53 -254.6,-178.23 -386.25,-223.01l-811.06 1404.81c-479.15,829.9 -259.42,1862.11 488.29,2293.79l1129.43 652.08c55.6,-139.67 127.12,-276.73 226.83,-402.71 178.06,-224.93 435.65,-377.3 673.78,-238.3 231.41,135.09 214.83,416.39 530.5,563.28 581.73,270.68 1047.06,-623.26 604.56,-965.02 -282.77,-218.4 -564.73,-72.73 -774.78,-186.45 -235.19,-127.32 -190.33,-459.58 -90.13,-725.9 130.49,-346.83 301.55,-540.83 508.87,-821.24z"/>
  <path class="fil2" d="M4275.46 7488.67c131.65,44.78 259.49,108.48 386.25,223.01 193,174.35 298.58,444.04 116.22,711.87 -159.08,233.59 -439.84,244.89 -585.29,632.44 -232.27,618.85 600.14,1018.32 939.72,414.71 170.1,-302.37 87.73,-617.29 235.43,-814.94 154.97,-207.36 460.21,-182.79 707.43,-91.84 190.09,69.93 508.87,268.4 656.64,415.74 61.9,61.73 45.79,24.56 29.89,83.35l32.18 -19.81c214.69,-304.18 389.94,-468 533.17,-852.93 98.26,-264.05 144.6,-595.31 -92.91,-722.28 -208.39,-111.42 -492.04,33.48 -775.43,-186.2 -204.55,-158.56 -227.76,-456.76 -69.48,-728.6 153.85,-264.21 442.67,-344.13 673.46,-237.43 319.73,147.82 307.28,431.76 531.14,564.75 237.03,140.81 499.93,-14.74 677.03,-240.03 105.15,-133.77 173.35,-267.2 225.9,-402.67l-2624.37 -1515.18 -1596.98 2766.04z"/>
  <path class="fil3" d="M8496.81 6237.81c-52.55,135.47 -120.75,268.9 -225.9,402.67 -177.1,225.29 -440,380.84 -677.03,240.03 -223.86,-132.99 -211.41,-416.93 -531.14,-564.75 -230.79,-106.7 -519.61,-26.78 -673.46,237.43 -158.28,271.84 -135.07,570.04 69.48,728.6 283.39,219.68 567.04,74.78 775.43,186.2 237.51,126.97 191.17,458.23 92.91,722.28 -143.23,384.93 -318.48,548.75 -533.17,852.93 221.13,198.13 439.54,373.17 728.06,474.2 238.92,83.65 543.14,111.73 697.73,-111.7 139.75,-201.99 49.46,-503.76 234.47,-818.36 335.69,-570.85 1156.67,-192.05 943.01,415.09 -55.17,156.78 -165.73,292.53 -273.85,383.69 -103.23,87.05 -222.73,141.83 -308.11,256.44 -195.96,263.05 -92.24,539.43 94.5,712.96 132.16,122.83 262.83,187.41 399.08,232.79l977.96 -1693.89c386.57,-669.56 209.3,-1502.33 -393.94,-1850.62l-1396.03 -805.99z"/>
  <path class="fil4" d="M8447.82 12330.72c869.42,-1239.28 1945.48,-2556.59 2893.27,-3593.17 258.93,-283.19 437.21,-304.62 96.19,-456.75 -66.28,-29.57 -136.86,-59.91 -209.2,-92.54 -380.98,-171.86 -295.93,-233.15 -490.7,97.78 -650.1,1104.45 -1835.9,3098.31 -2289.56,4044.68z"/>
  <path class="fil5" d="M8043.16 13136.39c1075.16,-1151.14 2573.06,-2705.19 3799.72,-3483.68 223.34,-141.74 306.41,-111.62 55.91,-259.68 -133.44,-78.86 -290.5,-157.74 -427.74,-236.61 -285.73,-164.2 -171.95,-174.22 -404.17,94.02 -1083.04,1251.06 -2059.91,2429.4 -3023.72,3885.95z"/>
  <path class="fil6" d="M15713.84 6547.08c138.81,130.38 261.45,277.67 367.89,441.85 106.43,164.19 195.5,336.83 267.23,517.91 71.73,181.09 126.1,369.42 163.12,565 37.02,195.57 55.52,389.94 55.52,583.1 0,231.79 -27.76,462.37 -83.28,691.75 -55.55,229.38 -135.36,446.68 -239.48,651.92 -104.12,205.23 -233.68,393.56 -388.7,564.99 -155.04,171.43 -332.04,315.09 -531.02,430.99 -249.89,144.87 -528.69,240.24 -836.41,286.12 -307.74,45.87 -605.05,68.81 -891.95,68.81l-1200.85 0 0 -941.66 964.84 0 208.24 0c231.38,0 446.56,-13.27 645.54,-39.83 198.97,-26.56 404.9,-100.21 617.76,-220.93 124.95,-72.44 237.18,-162.98 336.66,-271.63 99.49,-108.65 181.63,-228.17 246.4,-358.56 64.79,-130.38 114.54,-269.21 149.25,-416.5 34.71,-147.28 52.06,-295.77 52.06,-445.47 0,-251.11 -48.6,-494.97 -145.76,-731.6 -97.18,-236.62 -236.02,-439.43 -416.48,-608.45 -120.32,-111.07 -247.58,-196.78 -381.77,-257.14 -134.2,-60.37 -273.02,-105.03 -416.47,-134.01 -143.45,-28.97 -290.39,-47.08 -440.78,-54.32 -150.4,-7.25 -301.95,-10.87 -454.65,-10.87l-964.84 0 0 -941.66 1180.03 0c180.47,0 366.71,8.46 558.76,25.36 192.05,16.9 381.78,49.49 569.19,97.78 187.41,48.29 366.73,112.28 537.95,191.96 171.21,79.68 328.53,184.71 472,315.09zm3495.97 4802.44c-222.12,0 -430.36,-39.84 -624.71,-119.52 -194.35,-79.68 -364.41,-191.95 -510.19,-336.82 -145.75,-144.87 -262.6,-315.09 -350.52,-510.67 -87.93,-195.57 -136.51,-409.26 -145.76,-641.05l971.76 0c23.14,202.82 90.25,370.63 201.3,503.43 111.06,132.79 263.76,199.19 458.12,199.19 92.56,0 180.47,-15.69 263.78,-47.08 83.29,-31.39 157.32,-76.06 222.12,-134.01 64.78,-57.94 116.84,-126.76 156.17,-206.43 39.32,-79.68 59.01,-167.81 59.01,-264.39 0,-149.7 -28.94,-271.63 -86.77,-365.8 -57.86,-94.16 -133.05,-171.43 -225.59,-231.79 -92.56,-60.36 -195.52,-112.28 -308.9,-155.74 -113.37,-43.46 -225.58,-86.92 -336.65,-130.38 -78.66,-28.97 -155.02,-60.36 -229.05,-94.17 -74.04,-33.8 -150.4,-70.02 -229.07,-108.65 -254.5,-135.21 -440.76,-309.05 -558.76,-521.53 -118,-212.48 -177,-470.83 -177,-775.05 0,-217.31 38.16,-416.51 114.53,-597.59 76.34,-181.09 180.47,-338.03 312.36,-470.83 131.87,-132.8 288.05,-236.62 468.52,-311.47 180.47,-74.85 372.52,-112.28 576.12,-112.28 203.61,0 393.35,37.43 569.18,112.28 175.86,74.85 329.72,179.88 461.6,315.09 131.89,135.21 237.16,293.36 315.82,474.45 78.68,181.09 122.64,377.87 131.9,590.35l-944.02 0c-13.87,-178.68 -67.09,-321.13 -159.65,-427.37 -92.55,-106.24 -226.75,-159.36 -402.59,-159.36 -143.46,0 -264.92,49.5 -364.4,148.49 -99.51,99 -149.25,225.76 -149.25,380.29 0,125.55 25.46,228.17 76.35,307.85 50.9,79.68 116.84,144.87 197.84,195.57 80.98,50.71 170.05,92.96 267.22,126.76 97.18,33.81 192.05,67.61 284.6,101.41 189.73,62.78 364.41,138.84 524.06,228.17 159.65,89.34 298.47,196.78 416.48,322.34 118,125.55 209.39,274.04 274.17,445.47 64.8,171.43 97.18,373.04 97.18,604.83 0,246.28 -40.5,472.04 -121.46,677.27 -80.98,205.23 -193.2,380.29 -336.65,525.16 -143.45,144.87 -314.67,258.35 -513.66,340.44 -198.99,82.09 -414.16,123.14 -645.54,123.14zm6092 0l-1166.12 0 -1874.14 -2832.21 485.88 0 617.77 0c124.94,0 244.11,-16.9 357.47,-50.7 113.38,-33.81 211.71,-84.51 295.01,-152.12 83.3,-67.6 149.24,-153.32 197.82,-257.14 48.6,-103.82 72.89,-228.17 72.89,-373.04 0,-140.04 -25.45,-261.97 -76.36,-365.8 -50.9,-103.82 -119.15,-189.54 -204.77,-257.14 -85.59,-67.61 -183.93,-118.31 -295,-152.12 -111.05,-33.8 -226.74,-50.7 -347.06,-50.7l-617.77 0 -964.84 0 0 -934.41 1589.55 0c231.38,0 454.66,22.94 669.83,68.81 215.18,45.88 415.33,143.66 600.42,293.36 194.36,159.36 344.75,353.73 451.19,583.11 106.43,229.37 159.65,474.44 159.65,735.21 0,231.79 -42.81,466 -128.42,702.62 -85.6,236.62 -209.39,434.61 -371.35,593.97 -134.2,135.21 -267.24,233 -399.13,293.36 -131.89,60.36 -285.75,112.27 -461.6,155.73l1409.08 1999.21zm-8656.14 0l0 -890.55 853.39 0 0 890.55 -853.39 0zm4183.15 0l0 -890.55 853.39 0 0 890.55 -853.39 0zm4592.69 0l0 -890.55 853.41 0 0 890.55 -853.41 0z"/>
  <path class="fil7" d="M21333.16 12136.52l-64.09 127.39c-77.82,-57.5 -154.03,-86.24 -228.67,-86.24 -118.44,0 -211.79,41.67 -280.37,125.28 -68.32,83.34 -102.61,193.85 -102.61,331.53 0,130.82 33.51,236.05 100.76,315.97 67,79.91 158.25,119.74 274.03,119.74 82.29,0 148.75,-24.79 199.67,-74.11l0 -264.54 -156.68 0 0 -131.35 311.75 0 0 492.68c-41.13,35.08 -98.64,63.04 -172.23,84.4 -73.85,21.37 -145.32,32.18 -214.94,32.18 -156.15,0 -279.32,-53.01 -369.79,-158.78 -90.45,-106.02 -135.55,-246.87 -135.55,-422.52 0,-175.13 49.58,-317.29 148.75,-426.22 99.16,-108.93 233.15,-163.52 401.69,-163.52 117.89,0 214.16,32.7 288.28,98.11zm897.56 367.14c-31.9,-22.16 -64.09,-33.23 -96.79,-33.23 -51.97,0 -97.59,24 -136.36,71.74 -39.04,48 -58.55,105.5 -58.55,173.02l0 475.27 -147.18 0 0 -827.64 147.18 0 0 131.34c53.53,-98.11 133.46,-147.17 239.21,-147.17 26.11,0 64.09,4.75 113.68,13.98l-61.19 142.69zm805 591.85c-58.55,73.85 -148.49,110.77 -269.29,110.77 -64.87,0 -121.05,-23.73 -168.53,-70.94 -47.75,-47.21 -71.47,-105.77 -71.47,-176.19 0,-84.13 36.66,-155.08 109.97,-213.37 73.33,-58.02 166.7,-87.04 280.36,-87.04 30.87,0 65.95,6.86 104.98,20.58 0,-133.99 -59.61,-200.98 -179.08,-200.98 -91.79,0 -162.2,24.79 -211.79,74.38l-61.73 -123.44c27.97,-22.68 66.47,-41.93 115.54,-58.02 49.31,-16.09 96.25,-24.27 141.1,-24.27 120,0 207.31,27.43 261.64,82.03 54.32,54.59 81.5,141.37 81.5,260.58l0 296.98c0,72.53 21.62,121.06 64.87,145.33l0 72.79c-59.87,0 -104.71,-8.44 -134.24,-25.32 -29.8,-16.88 -50.9,-44.83 -63.83,-83.87zm-13.98 -311.75c-46.15,-10.55 -78.6,-15.82 -97.06,-15.82 -73.85,0 -134.25,19.25 -180.93,57.49 -46.69,38.25 -70.16,83.61 -70.16,135.83 0,86.25 50.65,129.5 151.66,129.5 74.12,0 139.52,-35.34 196.49,-106.02l0 -200.98zm33.24 -843.47l-175.66 257.95 -107.61 0 131.35 -257.95 151.92 0zm1066.36 1250.17l0 -704.21 -343.4 0 0 704.21 -147.17 0 0 -704.21 -120.27 0 0 -123.43 120.27 0c0,-105.5 26.11,-188.32 78.06,-248.45 52.23,-60.14 121.06,-90.21 206.79,-90.21 42.72,0 88.61,7.65 137.67,23.21l-41.14 107.88c-30.06,-10.29 -58.03,-15.56 -83.87,-15.56 -44.84,0 -82.02,16.88 -111.3,50.9 -29.29,34.02 -43.78,77.01 -43.78,128.97 0,13.98 1.58,28.22 4.74,43.26l492.15 0 0 827.64 -148.75 0zm57.49 -1140.98c25.06,0 46.69,8.97 64.63,26.64 17.67,17.94 26.63,39.3 26.63,63.83 0,25.32 -8.96,46.95 -26.63,64.88 -17.94,17.67 -39.57,26.64 -64.63,26.64 -24.79,0 -46.14,-8.97 -64.09,-26.64 -17.67,-17.93 -26.63,-39.56 -26.63,-64.88 0,-25.06 8.71,-46.68 26.37,-64.09 17.42,-17.67 39.03,-26.38 64.35,-26.38zm1115.44 379.8l-73.32 102.86c-15.04,-14.77 -41.67,-28.74 -79.92,-41.93 -38.25,-13.19 -75.69,-19.78 -112.62,-19.78 -80.44,0 -144.54,27.95 -191.74,84.13 -47.21,55.92 -70.96,132.67 -70.96,230.26 0,97.05 24,170.9 71.75,221.81 48.01,50.9 114.46,76.22 199.4,76.22 65.92,0 132.39,-25.32 199.39,-75.96l58.02 123.44c-78.87,50.64 -176.44,75.95 -293.02,75.95 -112.89,0 -206.25,-37.97 -280.11,-113.67 -73.58,-75.7 -110.51,-178.56 -110.51,-307.79 0,-132.14 38.52,-237.91 115.52,-317.82 77.28,-79.92 182.79,-120.01 316.51,-120.01 43.25,0 89.94,8.97 140.31,26.91 50.38,17.93 87.29,36.39 111.3,55.38zm793.67 666.23c-58.56,73.85 -148.51,110.77 -269.3,110.77 -64.88,0 -121.06,-23.73 -168.54,-70.94 -47.73,-47.21 -71.47,-105.77 -71.47,-176.19 0,-84.13 36.67,-155.08 109.99,-213.37 73.31,-58.02 166.68,-87.04 280.36,-87.04 30.85,0 65.93,6.86 104.98,20.58 0,-133.99 -59.62,-200.98 -179.1,-200.98 -91.77,0 -162.2,24.79 -211.79,74.38l-61.71 -123.44c27.95,-22.68 66.47,-41.93 115.52,-58.02 49.33,-16.09 96.27,-24.27 141.1,-24.27 120.02,0 207.31,27.43 261.65,82.03 54.33,54.59 81.49,141.37 81.49,260.58l0 296.98c0,72.53 21.64,121.06 64.88,145.33l0 72.79c-59.87,0 -104.7,-8.44 -134.25,-25.32 -29.8,-16.88 -50.89,-44.83 -63.81,-83.87zm-13.98 -311.75c-46.17,-10.55 -78.61,-15.82 -97.06,-15.82 -73.85,0 -134.25,19.25 -180.94,57.49 -46.68,38.25 -70.15,83.61 -70.15,135.83 0,86.25 50.63,129.5 151.65,129.5 74.11,0 139.53,-35.34 196.5,-106.02l0 -200.98z"/>
 </g>
</svg>
