<?xml version="1.0" encoding="UTF-8"?>
<!DOCTYPE svg PUBLIC "-//W3C//DTD SVG 1.1//EN" "http://www.w3.org/Graphics/SVG/1.1/DTD/svg11.dtd">
<!-- Creator: CorelDRAW 2020 (64 Bit) -->
<svg xmlns="http://www.w3.org/2000/svg" xml:space="preserve" width="296.686mm" height="209.903mm" version="1.1" style="shape-rendering:geometricPrecision; text-rendering:geometricPrecision; image-rendering:optimizeQuality; fill-rule:evenodd; clip-rule:evenodd"
viewBox="0 0 29668.6 20990.28"
 xmlns:xlink="http://www.w3.org/1999/xlink"
 xmlns:xodm="http://www.corel.com/coreldraw/odm/2003">
 <defs>
  <style type="text/css">
   <![CDATA[
    .fil4 {fill:#96989A}
    .fil5 {fill:#606062}
    .fil2 {fill:#373435}
    .fil0 {fill:#FFF212}
    .fil3 {fill:#EC268F}
    .fil1 {fill:#00AFEF}
   ]]>
  </style>
 </defs>
 <g id="Camada_x0020_1">
  <metadata id="CorelCorpID_0Corel-Layer"/>
  <g id="_1731254485104">
   <path class="fil0" d="M13162.53 10505.59l-63.94 39.36c-411.9,557.12 -751.75,942.55 -1011.01,1631.63 -199.08,529.12 -288.2,1189.25 179.07,1442.2 417.32,225.94 977.52,-63.47 1539.32,370.44 879.15,679 -45.36,2455.07 -1201.13,1917.28 -627.17,-291.83 -594.23,-850.72 -1053.99,-1119.11 -473.11,-276.16 -984.89,26.56 -1338.65,473.45 -198.11,250.29 -340.2,522.6 -450.67,800.1l5221.89 3014.84 3175.65 -5500.39c-270.7,-90.16 -530.31,-218.46 -792.89,-462.5 -371.01,-344.77 -577.08,-893.87 -187.75,-1416.5 169.63,-227.7 407.06,-336.54 612.15,-509.49 214.81,-181.11 434.47,-450.82 544.08,-762.31 424.5,-1206.25 -1206.61,-1958.85 -1873.55,-824.69 -367.58,625.04 -188.19,1224.59 -465.85,1625.9 -307.13,443.91 -911.55,388.12 -1386.23,221.93 -573.23,-200.73 -1007.16,-548.49 -1446.5,-942.14z"/>
   <path class="fil1" d="M13098.59 10544.95c31.59,-116.8 63.6,-42.95 -59.38,-165.6 -293.59,-292.73 -926.93,-687.05 -1304.6,-825.98 -491.17,-180.7 -1097.62,-229.51 -1405.51,182.46 -293.45,392.69 -129.8,1018.37 -467.75,1619.11 -674.67,1199.25 -2328.49,405.59 -1867.02,-823.93 288.98,-769.98 846.79,-792.43 1162.85,-1256.53 362.3,-532.12 152.54,-1067.93 -230.91,-1414.33 -251.84,-227.54 -505.83,-354.1 -767.39,-443.07l-1611.4 2791.05c-951.97,1648.83 -515.41,3699.61 970.12,4557.27l2243.93 1295.54c110.47,-277.5 252.56,-549.81 450.67,-800.1 353.76,-446.89 865.54,-749.61 1338.65,-473.45 459.76,268.39 426.82,827.28 1053.99,1119.11 1155.77,537.79 2080.28,-1238.28 1201.13,-1917.28 -561.8,-433.91 -1122,-144.5 -1539.32,-370.44 -467.27,-252.95 -378.15,-913.08 -179.07,-1442.2 259.26,-689.08 599.11,-1074.51 1011.01,-1631.63z"/>
   <path class="fil2" d="M8158.88 7417.08c261.56,88.97 515.55,215.53 767.39,443.07 383.45,346.4 593.21,882.21 230.91,1414.33 -316.06,464.1 -873.87,486.55 -1162.85,1256.53 -461.47,1229.52 1192.35,2023.18 1867.02,823.93 337.95,-600.74 174.3,-1226.42 467.75,-1619.11 307.89,-411.97 914.34,-363.16 1405.51,-182.46 377.67,138.93 1011.01,533.25 1304.6,825.98 122.98,122.65 90.97,48.8 59.38,165.6l63.94 -39.36c426.54,-604.34 774.73,-929.81 1059.29,-1694.58 195.22,-524.61 287.29,-1182.75 -184.59,-1435.02 -414.03,-221.36 -977.58,66.52 -1540.61,-369.93 -406.4,-315.03 -452.51,-907.49 -138.04,-1447.57 305.66,-524.93 879.49,-683.72 1338.02,-471.73 635.23,293.69 610.49,857.82 1055.26,1122.04 470.92,279.76 993.25,-29.29 1345.11,-476.89 208.91,-265.77 344.41,-530.87 448.81,-800.02l-5214.05 -3010.33 -3172.85 5495.52z"/>
   <path class="fil3" d="M16545.78 4931.89c-104.4,269.15 -239.9,534.25 -448.81,800.02 -351.86,447.6 -874.19,756.65 -1345.11,476.89 -444.77,-264.22 -420.03,-828.35 -1055.26,-1122.04 -458.53,-211.99 -1032.36,-53.2 -1338.02,471.73 -314.47,540.08 -268.36,1132.54 138.04,1447.57 563.03,436.45 1126.58,148.57 1540.61,369.93 471.88,252.27 379.81,910.41 184.59,1435.02 -284.56,764.77 -632.75,1090.24 -1059.29,1694.58 439.34,393.65 873.27,741.41 1446.5,942.14 474.68,166.19 1079.1,221.98 1386.23,-221.93 277.66,-401.31 98.27,-1000.86 465.85,-1625.9 666.94,-1134.16 2298.05,-381.56 1873.55,824.69 -109.61,311.49 -329.27,581.2 -544.08,762.31 -205.09,172.95 -442.52,281.79 -612.15,509.49 -389.33,522.63 -183.26,1071.73 187.75,1416.5 262.58,244.04 522.19,372.34 792.89,462.5l1942.99 -3365.39c768.03,-1330.27 415.84,-2984.8 -782.67,-3676.78l-2773.61 -1601.33z"/>
   <path class="fil4" d="M16448.45 17037.18c1727.35,-2462.18 3865.25,-5079.39 5748.3,-7138.85 514.44,-562.63 868.64,-605.21 191.11,-907.46 -131.69,-58.75 -271.91,-119.03 -415.64,-183.86 -756.92,-341.44 -587.95,-463.21 -974.91,194.27 -1291.61,2194.3 -3647.54,6155.67 -4548.86,8035.9z"/>
   <path class="fil5" d="M15644.48 18637.87c2136.11,-2287.06 5112.11,-5374.62 7549.22,-6921.31 443.72,-281.61 608.77,-221.77 111.08,-515.93 -265.12,-156.68 -577.16,-313.39 -849.83,-470.09 -567.68,-326.23 -341.63,-346.14 -803,186.79 -2151.76,2485.59 -4092.59,4826.7 -6007.47,7720.54z"/>
  </g>
 </g>
</svg>
