<?xml version="1.0" encoding="UTF-8"?>
<!DOCTYPE svg PUBLIC "-//W3C//DTD SVG 1.1//EN" "http://www.w3.org/Graphics/SVG/1.1/DTD/svg11.dtd">
<!-- Creator: CorelDRAW 2020 (64 Bit) -->
<svg xmlns="http://www.w3.org/2000/svg" xml:space="preserve" width="37mm" height="36mm" version="1.1" style="shape-rendering:geometricPrecision; text-rendering:geometricPrecision; image-rendering:optimizeQuality; fill-rule:evenodd; clip-rule:evenodd"
viewBox="0 0 3700 3600"
 xmlns:xlink="http://www.w3.org/1999/xlink"
 xmlns:xodm="http://www.corel.com/coreldraw/odm/2003">
 <defs>
  <style type="text/css">
   <![CDATA[
    .fil4 {fill:#96989A}
    .fil5 {fill:#606062}
    .fil2 {fill:#373435}
    .fil0 {fill:#FFF212}
    .fil3 {fill:#EC268F}
    .fil1 {fill:#00AFEF}
   ]]>
  </style>
 </defs>
 <g id="Camada_x0020_1">
  <metadata id="CorelCorpID_0Corel-Layer"/>
  <g id="_1839382588112">
   <path class="fil0" d="M1502.13 1804.82l-13.27 8.16c-85.24,115.33 -155.61,195.1 -209.28,337.76 -41.23,109.55 -59.67,246.2 37.07,298.57 86.41,46.79 202.36,-13.13 318.66,76.69 182,140.57 -9.38,508.24 -248.65,396.9 -129.85,-60.39 -123.02,-176.09 -218.22,-231.66 -97.92,-57.17 -203.87,5.48 -277.1,98.01 -41,51.82 -70.42,108.19 -93.31,165.64l1081.05 624.12 657.39 -1138.67c-56.04,-18.66 -109.77,-45.22 -164.13,-95.77 -76.8,-71.36 -119.48,-185.06 -38.88,-293.25 35.13,-47.11 84.28,-69.67 126.75,-105.47 44.46,-37.47 89.93,-93.3 112.63,-157.78 87.89,-249.71 -249.79,-405.51 -387.87,-170.73 -76.11,129.4 -38.94,253.52 -96.43,336.6 -63.58,91.89 -188.72,80.35 -286.97,45.93 -118.68,-41.56 -208.51,-113.54 -299.44,-195.05z"/>
   <path class="fil1" d="M1488.86 1812.98c6.55,-24.19 13.17,-8.89 -12.26,-34.29 -60.8,-60.58 -191.92,-142.24 -270.08,-170.98 -101.7,-37.42 -227.25,-47.52 -290.99,37.77 -60.73,81.29 -26.86,210.82 -96.83,335.19 -139.66,248.27 -482.01,83.96 -386.5,-170.59 59.82,-159.39 175.3,-164.03 240.74,-260.11 75,-110.16 31.57,-221.1 -47.81,-292.78 -52.14,-47.11 -104.71,-73.34 -158.88,-91.73l-333.57 577.8c-197.06,341.32 -106.69,765.88 200.82,943.42l464.53 268.21c22.89,-57.45 52.31,-113.82 93.31,-165.64 73.23,-92.53 179.18,-155.18 277.1,-98.01 95.2,55.57 88.37,171.27 218.22,231.66 239.27,111.34 430.65,-256.33 248.65,-396.9 -116.3,-89.82 -232.25,-29.9 -318.66,-76.69 -96.74,-52.37 -78.3,-189.02 -37.07,-298.57 53.67,-142.66 124.04,-222.43 209.28,-337.76z"/>
   <path class="fil2" d="M466.25 1165.46c54.17,18.39 106.74,44.62 158.88,91.73 79.38,71.68 122.81,182.62 47.81,292.78 -65.44,96.08 -180.92,100.72 -240.74,260.11 -95.51,254.55 246.84,418.86 386.5,170.59 69.97,-124.37 36.1,-253.9 96.83,-335.19 63.74,-85.29 189.29,-75.19 290.99,-37.77 78.16,28.74 209.28,110.4 270.08,170.98 25.43,25.4 18.81,10.1 12.26,34.29l13.27 -8.16c88.3,-125.1 160.35,-192.5 219.26,-350.8 40.43,-108.59 59.48,-244.84 -38.19,-297.06 -85.73,-45.84 -202.4,13.77 -318.94,-76.59 -84.14,-65.21 -93.68,-187.87 -28.59,-299.67 63.28,-108.67 182.08,-141.56 276.99,-97.65 131.51,60.79 126.39,177.57 218.48,232.27 97.49,57.89 205.62,-6.07 278.44,-98.72 43.25,-55.01 71.3,-109.91 92.93,-165.62l-1079.42 -623.18 -656.84 1137.66z"/>
   <path class="fil3" d="M2202.51 650.98c-21.63,55.71 -49.68,110.61 -92.93,165.62 -72.82,92.65 -180.95,156.61 -278.44,98.72 -92.09,-54.7 -86.97,-171.48 -218.48,-232.27 -94.91,-43.91 -213.71,-11.02 -276.99,97.65 -65.09,111.8 -55.55,234.46 28.59,299.67 116.54,90.36 233.21,30.75 318.94,76.59 97.67,52.22 78.62,188.47 38.19,297.06 -58.91,158.3 -130.96,225.7 -219.26,350.8 90.93,81.51 180.76,153.49 299.44,195.05 98.25,34.42 223.39,45.96 286.97,-45.93 57.49,-83.08 20.32,-207.2 96.43,-336.6 138.08,-234.78 475.76,-78.98 387.87,170.73 -22.7,64.48 -68.17,120.31 -112.63,157.78 -42.47,35.8 -91.62,58.36 -126.75,105.47 -80.6,108.19 -37.92,221.89 38.88,293.25 54.36,50.55 108.09,77.11 164.13,95.77l402.24 -696.7c158.98,-275.38 86.08,-617.91 -162.03,-761.16l-574.17 -331.5z"/>
   <path class="fil4" d="M2182.34 3157c357.59,-509.75 800.2,-1051.53 1190.01,-1477.87 106.51,-116.48 179.83,-125.3 39.57,-187.88 -27.27,-12.14 -56.29,-24.62 -86.06,-38.04 -156.69,-70.7 -121.72,-95.9 -201.81,40.21 -267.38,454.26 -755.1,1274.3 -941.71,1663.58z"/>
   <path class="fil5" d="M2015.93 3488.36c442.18,-473.47 1058.28,-1112.64 1562.81,-1432.87 91.85,-58.25 126.03,-45.9 23.01,-106.8 -54.91,-32.4 -119.5,-64.84 -175.94,-97.28 -117.54,-67.55 -70.72,-71.69 -166.23,38.67 -445.47,514.54 -847.25,999.2 -1243.65,1598.28z"/>
  </g>
 </g>
</svg>
